<svg width="292" height="41" viewBox="0 0 292 41" fill="none" xmlns="http://www.w3.org/2000/svg">
<path d="M38.6333 0.5H2.36667C1.33574 0.5 0.5 1.33574 0.5 2.36667V38.6333C0.5 39.6643 1.33574 40.5 2.36667 40.5H38.6333C39.6643 40.5 40.5 39.6643 40.5 38.6333V2.36667C40.5 1.33574 39.6643 0.5 38.6333 0.5Z" fill="#F5535E"/>
<path d="M25.9872 7.18368C25.9872 6.99014 26.1445 6.83325 26.3385 6.83325H29.1488C29.3428 6.83325 29.5001 6.99014 29.5001 7.18368V9.9871C29.5001 10.1806 29.3428 10.3375 29.1488 10.3375H26.3385C26.1445 10.3375 25.9872 10.1806 25.9872 9.9871V7.18368Z" fill="white"/>
<path d="M11.2334 9.28597C11.2334 9.00563 11.5496 8.83743 11.7814 8.99862L29.3455 20.794C29.4439 20.8571 29.5001 20.9692 29.5001 21.0814V24.4385C29.5001 24.7188 29.1839 24.887 28.9521 24.7258L11.388 12.9374C11.2896 12.8744 11.2334 12.7622 11.2334 12.6501V9.28597Z" fill="white"/>
<path d="M11.2334 18.1728C11.2334 17.8925 11.5496 17.7243 11.7814 17.8855L29.3455 29.6809C29.4439 29.744 29.5001 29.8561 29.5001 29.9682V33.3253C29.5001 33.6057 29.1839 33.7739 28.9521 33.6127L11.388 21.8243C11.2896 21.7612 11.2334 21.6491 11.2334 21.537V18.1728Z" fill="white"/>
<path d="M213.765 8.02954V32.6721H209.575V30.4076H209.506C208.27 32.3169 206.244 33.2715 203.428 33.2715C200.887 33.2715 198.666 32.3835 196.766 30.6074C194.729 28.6982 193.71 26.3117 193.71 23.4478C193.71 20.4951 194.763 18.0642 196.869 16.1549C198.769 14.4233 200.956 13.5575 203.428 13.5575C205.786 13.5575 207.709 14.3123 209.197 15.8219V8.02954H213.765ZM198.277 23.2813C198.277 24.9685 198.827 26.3783 199.926 27.5105C201.047 28.6427 202.375 29.2088 203.909 29.2088C205.557 29.2088 206.931 28.5872 208.03 27.344C209.037 26.2117 209.541 24.9019 209.541 23.4145C209.541 21.8605 208.991 20.5062 207.892 19.3518C206.816 18.1974 205.489 17.6202 203.909 17.6202C202.306 17.6202 200.944 18.2418 199.823 19.485C198.792 20.6172 198.277 21.8827 198.277 23.2813Z" fill="#ffffffde"/>
<path d="M216.564 32.6721V14.1902H220.754V15.8219H220.822C221.372 15.0671 221.864 14.5343 222.299 14.2235C222.986 13.7795 223.856 13.5575 224.909 13.5575H225.287V17.8533C222.517 17.9643 221.132 19.4406 221.132 22.2823V32.6721H216.564Z" fill="#ffffffde"/>
<path d="M227.221 32.6721V14.1902H231.788V32.6721H227.221ZM227.221 12.0922V8.02954H231.788V12.0922H227.221Z" fill="#ffffffde"/>
<path d="M241.445 32.6721L233.753 14.1902H238.698L243.3 26.4449H243.403L247.73 14.1902H252.743L245.017 32.6721H241.445Z" fill="#ffffffde"/>
<path d="M272.186 25.4125H257.386C257.523 26.2117 258.015 26.9888 258.862 27.7436C259.938 28.7204 261.197 29.2088 262.64 29.2088C264.677 29.2088 266.142 28.4207 267.035 26.8445H271.843C271.271 28.5983 270.16 30.0857 268.512 31.3068C266.749 32.6166 264.792 33.2715 262.64 33.2715C259.824 33.2715 257.443 32.3169 255.497 30.4076C253.551 28.4984 252.578 26.1895 252.578 23.4811C252.578 20.7948 253.517 18.4749 255.394 16.5212C257.34 14.4788 259.744 13.4576 262.605 13.4576C265.49 13.4576 267.894 14.4899 269.817 16.5545C271.58 18.486 272.461 20.6949 272.461 23.1814C272.461 23.8696 272.37 24.6133 272.186 25.4125ZM257.248 21.8494H267.791C267.539 20.4507 266.898 19.3629 265.868 18.5859C264.952 17.8755 263.876 17.5203 262.64 17.5203C261.564 17.5203 260.568 17.8089 259.652 18.3861C258.439 19.1631 257.638 20.3175 257.248 21.8494Z" fill="#ffffffde"/>
<path d="M274.928 32.6721V14.1902H279.152V15.7886C280.754 14.3012 282.494 13.5575 284.371 13.5575C285.31 13.5575 286.272 13.7573 287.256 14.1569C288.424 14.6009 289.374 15.2558 290.106 16.1216C291.274 17.4981 291.858 19.6848 291.858 22.6819V32.6721H287.29V23.5477C287.29 19.596 286.008 17.6202 283.444 17.6202C282.116 17.6202 281.075 18.1641 280.319 19.2519C279.77 20.0289 279.495 21.5718 279.495 23.8807V32.6721H274.928Z" fill="#ffffffde"/>
<path d="M184.057 25.3509H169.257C169.394 26.1501 169.886 26.9271 170.733 27.6819C171.809 28.6587 173.069 29.1471 174.511 29.1471C176.548 29.1471 178.013 28.359 178.906 26.7828H183.714C183.142 28.5366 182.031 30.024 180.383 31.245C178.62 32.5548 176.663 33.2098 174.511 33.2098C171.695 33.2098 169.314 32.2551 167.368 30.3459C165.422 28.4367 164.449 26.1279 164.449 23.4194C164.449 20.7332 165.388 18.4133 167.265 16.4596C169.211 14.4172 171.615 13.396 174.476 13.396C177.361 13.396 179.765 14.4283 181.688 16.4929C183.451 18.4244 184.332 20.6333 184.332 23.1197C184.332 23.8079 184.24 24.5516 184.057 25.3509ZM169.119 21.7877H179.662C179.41 20.3891 178.769 19.3013 177.739 18.5243C176.823 17.8139 175.747 17.4587 174.511 17.4587C173.435 17.4587 172.439 17.7473 171.523 18.3245C170.31 19.1015 169.509 20.2559 169.119 21.7877Z" fill="#ffffffde"/>
<path d="M154.263 32.6104L146.571 14.1287H151.516L156.118 26.3832H156.221L160.548 14.1287H165.561L157.835 32.6104H154.263Z" fill="#ffffffde"/>
<path d="M140.85 32.6106V14.1288H145.417V32.6106H140.85ZM140.85 12.0309V7.96826H145.417V12.0309H140.85Z" fill="#ffffffde"/>
<path d="M132.229 32.6106V18.0583H129.997V14.1288H132.229V7.96826H136.796V14.1288H139.544V18.0583H136.796V32.6106H132.229Z" fill="#ffffffde"/>
<path d="M128.468 14.1288V32.6105H124.278V30.3128C123.546 31.1564 122.55 31.8557 121.291 32.4107C120.032 32.9435 118.807 33.2099 117.617 33.2099C115.052 33.2099 112.889 32.3219 111.126 30.5459C109.272 28.6589 108.345 26.228 108.345 23.2531C108.345 20.4559 109.26 18.136 111.092 16.2933C112.946 14.4285 115.213 13.4961 117.891 13.4961C119.54 13.4961 121.062 13.9512 122.458 14.8614C123.397 15.5052 123.981 16.038 124.21 16.4598H124.278V14.1288H128.468ZM124.141 23.3197C124.141 21.5215 123.557 20.0785 122.39 18.9907C121.337 18.0361 120.066 17.5587 118.578 17.5587C116.815 17.5587 115.407 18.1915 114.354 19.4569C113.393 20.5891 112.912 21.9211 112.912 23.4529C112.912 25.0291 113.45 26.3723 114.526 27.4823C115.602 28.5923 116.953 29.1473 118.578 29.1473C120.181 29.1473 121.508 28.6034 122.561 27.5156C123.615 26.4278 124.141 25.0291 124.141 23.3197Z" fill="#ffffffde"/>
<path d="M99.9336 32.6105V14.1288H104.123V15.7605H104.192C104.741 15.0057 105.233 14.4729 105.668 14.1621C106.355 13.7181 107.225 13.4961 108.278 13.4961H108.656V17.7918C105.886 17.9028 104.501 19.3792 104.501 22.2208V32.6105H99.9336Z" fill="#ffffffde"/>
<path d="M89.6104 32.6105V14.1288H93.7998V15.7605H93.8685C94.4179 15.0057 94.9101 14.4729 95.3451 14.1621C96.0319 13.7181 96.9019 13.4961 97.955 13.4961H98.3327V17.7918C95.5626 17.9028 94.1776 19.3792 94.1776 22.2208V32.6105H89.6104Z" fill="#ffffffde"/>
<path d="M87.8566 14.1288V32.6105H83.6671V30.3128C82.9345 31.1564 81.9387 31.8557 80.6795 32.4107C79.4204 32.9435 78.1956 33.2099 77.0052 33.2099C74.4411 33.2099 72.2777 32.3219 70.5149 30.5459C68.6606 28.6589 67.7334 26.228 67.7334 23.2531C67.7334 20.4559 68.6491 18.136 70.4806 16.2933C72.3349 14.4285 74.6014 13.4961 77.2799 13.4961C78.9282 13.4961 80.4506 13.9512 81.8471 14.8614C82.7857 15.5052 83.3695 16.038 83.5984 16.4598H83.6671V14.1288H87.8566ZM83.5298 23.3197C83.5298 21.5215 82.946 20.0785 81.7784 18.9907C80.7253 18.0361 79.4548 17.5587 77.9667 17.5587C76.2039 17.5587 74.796 18.1915 73.7429 19.4569C72.7814 20.5891 72.3006 21.9211 72.3006 23.4529C72.3006 25.0291 72.8386 26.3723 73.9146 27.4823C74.9906 28.5923 76.3413 29.1473 77.9667 29.1473C79.5692 29.1473 80.897 28.6034 81.9501 27.5156C83.0032 26.4278 83.5298 25.0291 83.5298 23.3197Z" fill="#ffffffde"/>
<path d="M49.2871 32.6105V14.1288H53.5109V15.7272C55.1134 14.2398 56.8533 13.4961 58.7306 13.4961C59.6692 13.4961 60.6307 13.6959 61.6151 14.0955C62.7827 14.5395 63.7328 15.1944 64.4653 16.0602C65.6329 17.4366 66.2167 19.6234 66.2167 22.6204V32.6105H61.6495V23.4862C61.6495 19.5346 60.3675 17.5587 57.8034 17.5587C56.4756 17.5587 55.434 18.1027 54.6785 19.1905C54.129 19.9675 53.8543 21.5104 53.8543 23.8192V32.6105H49.2871Z" fill="#ffffffde"/>
</svg>
