<svg xmlns="http://www.w3.org/2000/svg" width="32" height="32" viewBox="0 0 32 32"><g transform="translate(358 -1265.456)"><rect width="32" height="32" rx="2" transform="translate(-358 1265.456)" fill="#1b5ee0"/><path d="M9.782,34.229a6.33,6.33,0,0,0-6.031,4.406,8.865,8.865,0,0,1,4.017-.953h3.165a.575.575,0,1,1,0,1.151H7.768a7.855,7.855,0,0,0-1.733.194,7.69,7.69,0,0,0-2.568,1.1h0A7.76,7.76,0,0,0,0,46.6v.575a.863.863,0,0,0,1.726,0V46.6A6.023,6.023,0,0,1,3.661,42.17a6.33,6.33,0,0,0,6.121,4.718h.036c4.751-.025,8.6-4.708,8.6-10.48a12.325,12.325,0,0,0-.759-4.3.325.325,0,0,0-.583,0,4.02,4.02,0,0,1-3.55,2.125Z" transform="translate(-350.964 1241.261)" fill="#fff"/></g></svg>