<svg xmlns="http://www.w3.org/2000/svg" width="816.021" height="816.262" viewBox="0 0 816.021 816.262"><path d="M480.239-71.87q-83.913,0-158.34-32.115T191.906-191.667Q136.34-247.232,104.224-321.66T72.109-480q0-84.687,32.115-159.171t87.682-129.581q55.565-55.1,129.993-87.238t158.34-32.141q84.638,0,159.078,32.142t129.505,87.241q55.066,55.1,87.187,129.587T888.131-480q0,83.913-32.122,158.34T768.822-191.667Q713.757-136.1,639.317-103.985T480.239-71.869Zm-.239-91q132.326,0,224.87-92.206t92.5-224.054q-70.761-7.24-108.881-44.022T623.13-614.174a34.272,34.272,0,0,0-13.3-15.185A35.822,35.822,0,0,0,591-634.5H370a37.919,37.919,0,0,0-19.676,5.141,33.975,33.975,0,0,0-13.454,15.185q-27,55-66,91.9T163.109-478.13q.956,131.847,93.38,223.554T480-162.87ZM361.2-389.283q-21.479,0-36.1-14.619T310.478-440q0-21.478,14.62-36.1t36.1-14.619q21.478,0,36.1,14.619T411.913-440q0,21.478-14.619,36.1T361.2-389.283Zm237.608,0q-21.478,0-36.1-14.619T548.087-440q0-21.478,14.619-36.1t36.1-14.619q21.479,0,36.1,14.619t14.62,36.1q0,21.478-14.62,36.1T598.8-389.283Z" transform="translate(-72.109 888.131)" fill="#4268fb"/></svg>