<svg xmlns="http://www.w3.org/2000/svg" width="640" height="773" viewBox="0 0 640 773"><path d="M480-520q17,0,28.5-11.5T520-560V-680q0-17-11.5-28.5T480-720q-17,0-28.5,11.5T440-680v120q0,17,11.5,28.5T480-520Zm0,160q17,0,28.5-11.5T520-400q0-17-11.5-28.5T480-440q-17,0-28.5,11.5T440-400q0,17,11.5,28.5T480-360Zm0,253a82.776,82.776,0,0,1-28-5,73.616,73.616,0,0,1-25-15q-65-60-115-117T228.5-354.5q-33.5-53.5-51-103T160-552q0-150,96.5-239T480-880q127,0,223.5,89T800-552q0,45-17.5,94.5t-51,103Q698-301,648-244T533-127a73.616,73.616,0,0,1-25,15A82.776,82.776,0,0,1,480-107Z" transform="translate(-160 880)" fill="#4268fb"/></svg>