<svg xmlns="http://www.w3.org/2000/svg" width="720" height="720" viewBox="0 0 720 720"><path d="M160-520q-17,0-28.5-11.5T120-560V-800q0-17,11.5-28.5T160-840H400q17,0,28.5,11.5T440-800v240q0,17-11.5,28.5T400-520Zm400,0q-17,0-28.5-11.5T520-560V-800q0-17,11.5-28.5T560-840H800q17,0,28.5,11.5T840-800v240q0,17-11.5,28.5T800-520ZM160-120q-17,0-28.5-11.5T120-160V-400q0-17,11.5-28.5T160-440H400q17,0,28.5,11.5T440-400v240q0,17-11.5,28.5T400-120Zm520,0q-17,0-28.5-11.5T640-160v-80H559q-17,0-28-11.5T520-280q0-17,11.5-28.5T560-320h80v-81q0-17,11.5-28T680-440q17,0,28.5,11.5T720-400v80h81q17,0,28,11.5T840-280q0,17-11.5,28.5T800-240H720v81q0,17-11.5,28T680-120Z" transform="translate(-120 840)"/></svg>