<svg xmlns="http://www.w3.org/2000/svg" width="715.674" height="715.435" viewBox="0 0 715.674 715.435"><path d="M378.087-314.5q-111.152,0-188.326-77.174T112.587-580q0-111.152,77.174-188.326T378.087-845.5q111.152,0,188.326,77.174T643.587-580q0,44.478-13.522,83.12T593.5-428.717L815.587-206.391q12.674,12.913,12.674,31.945t-12.913,31.707q-12.674,12.674-31.826,12.674T751.7-142.739L529.848-364.587q-29.761,23.044-68.642,36.565T378.087-314.5Zm0-91q72.848,0,123.674-50.826T552.587-580q0-72.848-50.826-123.674T378.087-754.5q-72.848,0-123.674,50.826T203.587-580q0,72.848,50.826,123.674T378.087-405.5Z" transform="translate(-112.587 845.5)" fill="#4268fb"/></svg>