<svg xmlns="http://www.w3.org/2000/svg" xmlns:xlink="http://www.w3.org/1999/xlink" width="579" height="490.784" viewBox="0 0 579 490.784"><defs><clipPath id="a"><path d="M3.431,0H575.569C577.464,0,579,1.256,579,2.8V490.784H0V2.8C0,1.256,1.536,0,3.431,0Z" transform="translate(-2553 -439)" fill="#f3f3f4"/></clipPath></defs><g transform="translate(2553 439)" clip-path="url(#a)"><g transform="translate(-948 92)"><path d="M0,0,579-8.967V581H0Z" transform="translate(-1605 -460)" fill="#fff"/><path d="M579.5-9.475V581.5H-.5V-.492L-.008-.5Zm-1,589.975V-8.46L.5.492V580.5Z" transform="translate(-1605 -460)" fill="#e0e0e1"/><path d="M8,0H571a8,8,0,0,1,8,8V71H0V8A8,8,0,0,1,8,0Z" transform="translate(-1605 -531)" fill="#4268fb"/><g transform="translate(-1573.5 -495.5)"><circle cx="35" cy="35" r="35" transform="translate(0.5 0.5)" fill="#e2edfe"/><path d="M168.791-860.661h3.516V-865.5h3.516v4.835h3.516v-8.351l-5.274-3.516-5.274,3.516Zm5.274,15.823a58.447,58.447,0,0,1-10.571-11.186Q160-861.188,160-865.583a13.6,13.6,0,0,1,4.242-10.505A14.05,14.05,0,0,1,174.065-880a14.05,14.05,0,0,1,9.824,3.912,13.6,13.6,0,0,1,4.242,10.505q0,4.4-3.494,9.56a58.445,58.445,0,0,1-10.572,11.186Z" transform="translate(-139.419 898.166)" fill="#4268fb"/></g><path d="M.824,2.5H9.05V5.7h2.98V2.5h2.206V-.067H12.03V-11.543H8.141L.824.017ZM9.084-.067H4.023V-.2L8.949-8.007h.135ZM17.554,5.7H20.8L28.12-8.874v-2.669H16.375v2.61h8.512v.118Zm19.29.328C41,6.037,43.486,2.753,43.486-2.9c0-5.624-2.5-8.874-6.643-8.874S30.209-8.537,30.2-2.9s2.484,8.929,6.643,8.929Zm0-2.635c-2.147,0-3.494-2.155-3.486-6.3.008-4.109,1.347-6.273,3.486-6.273s3.485,2.167,3.493,6.28c0,4.138-1.337,6.293-3.494,6.293ZM52.6,5.936A5.817,5.817,0,0,0,58.81-.008a5.336,5.336,0,0,0-1.461-3.956,5.336,5.336,0,0,0-3.877-1.66,4.842,4.842,0,0,0-4.311,2.383h-.118c.008-3.679,1.339-5.885,3.73-5.885a2.725,2.725,0,0,1,2.8,2.231H58.65a5.627,5.627,0,0,0-5.877-4.934c-4.142,0-6.761,3.452-6.761,9.4C46.012,3.89,49.288,5.919,52.6,5.936ZM52.58,3.41A3.242,3.242,0,0,1,49.38.084a3.288,3.288,0,0,1,3.242-3.326,3.156,3.156,0,0,1,2.285.974A3.156,3.156,0,0,1,55.779.058a3.213,3.213,0,0,1-3.2,3.352ZM67.7-11.543V5.7h3V-6.172h.16L75.624,5.65h2.24L82.63-6.15h.16V5.7h3V-11.543H81.964L76.845.952h-.2l-5.121-12.5ZM97.617.261a2.749,2.749,0,0,1-2.753,2.947A2.407,2.407,0,0,1,92.422.531V-7.232H89.374V1c0,3.107,1.768,4.867,4.311,4.867A3.991,3.991,0,0,0,97.575,3.4h.135V5.7h2.955V-7.232H97.617ZM103.8,5.7h3.048V-1.9a2.763,2.763,0,0,1,.848-2.033,2.763,2.763,0,0,1,2.065-.767,5.825,5.825,0,0,1,1.415.177v-2.8a7.319,7.319,0,0,0-1.095-.084,3.229,3.229,0,0,0-3.191,2.341h-.135V-7.232H103.8Zm9.4,4.85h3.048V3.663h.126a3.9,3.9,0,0,0,3.7,2.265c3.048,0,5.33-2.416,5.33-6.677,0-4.311-2.349-6.652-5.338-6.652a3.836,3.836,0,0,0-3.7,2.307H116.2V-7.232h-3ZM116.19-.766c0-2.509,1.078-4.134,3.04-4.134,2.029,0,3.073,1.726,3.073,4.134,0,2.425-1.061,4.193-3.073,4.193C117.285,3.427,116.19,1.743,116.19-.766Zm14.87-1.111a2.686,2.686,0,0,1,.726-2.114,2.686,2.686,0,0,1,2.074-.833c1.6,0,2.543,1.019,2.543,2.762V5.7h3.048V-2.534c0-3.124-1.768-4.867-4.454-4.867a3.8,3.8,0,0,0-3.848,2.366H131v-6.508h-2.981V5.7h3.048Zm12.907,12.4a4.411,4.411,0,0,0,4.479-3.258l5.2-14.482-3.258-.017-2.989,9.767h-.135l-2.981-9.767h-3.233l4.69,13.2-.261.7c-.581,1.431-1.457,1.541-2.787,1.162L141.98,10.2a5.494,5.494,0,0,0,1.987.325Zm32.559-16.25c-.53-3.831-3.477-6.054-7.3-6.054-4.5,0-7.9,3.284-7.9,8.858s3.351,8.858,7.9,8.858a7,7,0,0,0,7.3-5.944l-3.149-.017a3.909,3.909,0,0,1-4.109,3.157c-2.8,0-4.8-2.1-4.8-6.054,0-3.89,1.987-6.054,4.808-6.054a3.892,3.892,0,0,1,4.1,3.25ZM184.9,5.953c3.789,0,6.2-2.669,6.2-6.668S188.692-7.4,184.9-7.4s-6.2,2.677-6.2,6.685S181.115,5.953,184.9,5.953Zm.017-2.442c-2.1,0-3.124-1.869-3.124-4.235s1.027-4.26,3.124-4.26c2.063,0,3.09,1.894,3.09,4.26s-1.024,4.235-3.087,4.235Zm17-3.25a2.749,2.749,0,0,1-2.753,2.947A2.407,2.407,0,0,1,196.725.531V-7.232h-3.048V1c0,3.107,1.768,4.867,4.311,4.867a3.991,3.991,0,0,0,3.89-2.467h.135V5.7h2.955V-7.232H201.92ZM208.1,5.7h3.048V-1.9A2.763,2.763,0,0,1,212-3.933a2.763,2.763,0,0,1,2.065-.767,5.825,5.825,0,0,1,1.415.177v-2.8a7.318,7.318,0,0,0-1.1-.084,3.229,3.229,0,0,0-3.191,2.341h-.135V-7.232H208.1ZM224.771-7.232H222.22v-3.1h-3.048v3.1h-1.836v2.358h1.836v7.19c-.017,2.433,1.751,3.629,4.041,3.562a6.126,6.126,0,0,0,1.793-.3L224.492,3.2a3.8,3.8,0,0,1-.893.118c-.766,0-1.381-.269-1.381-1.5V-4.875h2.551Z" transform="translate(-1573.824 -382.839)" fill="#1e2124"/><path d="M3.884,4.2H6.2L8.8-4.869h.1L11.489,4.2H13.8L17.45-8.728H14.93L12.592.783h-.114L9.984-8.727H7.692L5.2.776H5.08l-2.33-9.5H.234Zm18.376.189c2.261,0,3.814-1.105,4.218-2.791l-2.134-.24a2.023,2.023,0,0,1-2.052,1.25A2.389,2.389,0,0,1,19.816-.019h6.757v-.7c0-3.4-2.046-4.9-4.433-4.9-2.778,0-4.591,2.04-4.591,5.033,0,3.042,1.788,4.981,4.711,4.981ZM19.823-1.56a2.331,2.331,0,0,1,2.349-2.28,2.161,2.161,0,0,1,1.6.656,2.161,2.161,0,0,1,.606,1.624ZM32.8,4.395c2.261,0,3.814-1.105,4.218-2.791l-2.134-.24a2.023,2.023,0,0,1-2.052,1.25A2.389,2.389,0,0,1,30.356-.019h6.757v-.7c0-3.4-2.046-4.9-4.433-4.9-2.778,0-4.591,2.04-4.591,5.033C28.089,2.456,29.876,4.395,32.8,4.395ZM30.362-1.56a2.331,2.331,0,0,1,2.349-2.28,2.161,2.161,0,0,1,1.6.656,2.161,2.161,0,0,1,.606,1.624ZM39.045,4.2h2.286V.947l.834-.89,2.968,4.149h2.734L43.888-1.307l3.757-4.187H44.974L41.489-1.6h-.158V-8.727H39.045Zm12.4-12.933H49.161V4.2h2.286Zm3.77,16.551A3.308,3.308,0,0,0,58.577,5.38l3.9-10.861-2.444-.013L57.787,1.831h-.1L55.451-5.494H53.026l3.517,9.9-.2.524C55.907,6,55.251,6.086,54.253,5.8l-.53,1.774a4.121,4.121,0,0,0,1.494.249Z" transform="translate(-1573.234 -237.755)"/><g transform="translate(-1672.064 -595)"><path d="M-5435.93,5884.16h-4.564v-1h4.564Zm-9.564,0h-5v-1h5Zm-10,0h-5v-1h5Zm-10,0h-5v-1h5Zm-10,0h-5v-1h5Zm-10,0h-5v-1h5Zm-10,0h-5v-1h5Zm-10,0h-5v-1h5Zm-10,0h-5v-1h5Zm-10,0h-5v-1h5Zm-10,0h-5v-1h5Zm-10,0h-5v-1h5Zm-10,0h-5v-1h5Zm-10,0h-5v-1h5Zm-10,0h-5v-1h5Zm-10,0h-5v-1h5Zm-10,0h-5v-1h5Zm-10,0h-5v-1h5Zm-10,0h-5v-1h5Zm-10,0h-5v-1h5Zm-10,0h-5v-1h5Zm-10,0h-5v-1h5Zm-10,0h-5v-1h5Zm-10,0h-5v-1h5Zm-10,0h-5v-1h5Zm-10,0h-5v-1h5Zm-10,0h-5v-1h5Zm-10,0h-5v-1h5Zm-10,0h-5v-1h5Zm-10,0h-5v-1h5Zm-10,0h-5v-1h5Zm-10,0h-5v-1h5Zm-10,0h-5v-1h5Zm-10,0h-5v-1h5Zm-10,0h-5v-1h5Zm-10,0h-5v-1h5Zm-10,0h-5v-1h5Zm-10,0h-5v-1h5Zm-10,0h-5v-1h5Zm-10,0h-5v-1h5Zm-10,0h-5v-1h5Zm-10,0h-5v-1h5Zm-10,0h-5v-1h5Zm-10,0h-5v-1h5Zm-10,0h-5v-1h5Zm-10,0h-5v-1h5Zm-10,0h-5v-1h5Zm-10,0h-5v-1h5Zm-10,0h-5v-1h5Zm-10,0h-5v-1h5Zm-10,0h-5v-1h5Zm-10,0h-5v-1h5Z" transform="translate(6049.999 -5496.156)" fill="#d2e2df"/><path d="M-5435.93,5884.16h-4.564v-1h4.564Zm-9.564,0h-5v-1h5Zm-10,0h-5v-1h5Zm-10,0h-5v-1h5Zm-10,0h-5v-1h5Zm-10,0h-5v-1h5Zm-10,0h-5v-1h5Zm-10,0h-5v-1h5Zm-10,0h-5v-1h5Zm-10,0h-5v-1h5Zm-10,0h-5v-1h5Zm-10,0h-5v-1h5Zm-10,0h-5v-1h5Zm-10,0h-5v-1h5Zm-10,0h-5v-1h5Zm-10,0h-5v-1h5Zm-10,0h-5v-1h5Zm-10,0h-5v-1h5Zm-10,0h-5v-1h5Zm-10,0h-5v-1h5Zm-10,0h-5v-1h5Zm-10,0h-5v-1h5Zm-10,0h-5v-1h5Zm-10,0h-5v-1h5Zm-10,0h-5v-1h5Zm-10,0h-5v-1h5Zm-10,0h-5v-1h5Zm-10,0h-5v-1h5Zm-10,0h-5v-1h5Zm-10,0h-5v-1h5Zm-10,0h-5v-1h5Zm-10,0h-5v-1h5Zm-10,0h-5v-1h5Zm-10,0h-5v-1h5Zm-10,0h-5v-1h5Zm-10,0h-5v-1h5Zm-10,0h-5v-1h5Zm-10,0h-5v-1h5Zm-10,0h-5v-1h5Zm-10,0h-5v-1h5Zm-10,0h-5v-1h5Zm-10,0h-5v-1h5Zm-10,0h-5v-1h5Zm-10,0h-5v-1h5Zm-10,0h-5v-1h5Zm-10,0h-5v-1h5Zm-10,0h-5v-1h5Zm-10,0h-5v-1h5Zm-10,0h-5v-1h5Zm-10,0h-5v-1h5Zm-10,0h-5v-1h5Zm-10,0h-5v-1h5Z" transform="translate(6049.999 -5387.156)" fill="#d2e2df"/><path d="M-5435.93,5884.16h-4.564v-1h4.564Zm-9.564,0h-5v-1h5Zm-10,0h-5v-1h5Zm-10,0h-5v-1h5Zm-10,0h-5v-1h5Zm-10,0h-5v-1h5Zm-10,0h-5v-1h5Zm-10,0h-5v-1h5Zm-10,0h-5v-1h5Zm-10,0h-5v-1h5Zm-10,0h-5v-1h5Zm-10,0h-5v-1h5Zm-10,0h-5v-1h5Zm-10,0h-5v-1h5Zm-10,0h-5v-1h5Zm-10,0h-5v-1h5Zm-10,0h-5v-1h5Zm-10,0h-5v-1h5Zm-10,0h-5v-1h5Zm-10,0h-5v-1h5Zm-10,0h-5v-1h5Zm-10,0h-5v-1h5Zm-10,0h-5v-1h5Zm-10,0h-5v-1h5Zm-10,0h-5v-1h5Zm-10,0h-5v-1h5Zm-10,0h-5v-1h5Zm-10,0h-5v-1h5Zm-10,0h-5v-1h5Zm-10,0h-5v-1h5Zm-10,0h-5v-1h5Zm-10,0h-5v-1h5Zm-10,0h-5v-1h5Zm-10,0h-5v-1h5Zm-10,0h-5v-1h5Zm-10,0h-5v-1h5Zm-10,0h-5v-1h5Zm-10,0h-5v-1h5Zm-10,0h-5v-1h5Zm-10,0h-5v-1h5Zm-10,0h-5v-1h5Zm-10,0h-5v-1h5Zm-10,0h-5v-1h5Zm-10,0h-5v-1h5Zm-10,0h-5v-1h5Zm-10,0h-5v-1h5Zm-10,0h-5v-1h5Zm-10,0h-5v-1h5Zm-10,0h-5v-1h5Zm-10,0h-5v-1h5Zm-10,0h-5v-1h5Zm-10,0h-5v-1h5Z" transform="translate(6049.999 -5442.156)" fill="#d2e2df"/><path d="M-5435.93,5884.16h-4.564v-1h4.564Zm-9.564,0h-5v-1h5Zm-10,0h-5v-1h5Zm-10,0h-5v-1h5Zm-10,0h-5v-1h5Zm-10,0h-5v-1h5Zm-10,0h-5v-1h5Zm-10,0h-5v-1h5Zm-10,0h-5v-1h5Zm-10,0h-5v-1h5Zm-10,0h-5v-1h5Zm-10,0h-5v-1h5Zm-10,0h-5v-1h5Zm-10,0h-5v-1h5Zm-10,0h-5v-1h5Zm-10,0h-5v-1h5Zm-10,0h-5v-1h5Zm-10,0h-5v-1h5Zm-10,0h-5v-1h5Zm-10,0h-5v-1h5Zm-10,0h-5v-1h5Zm-10,0h-5v-1h5Zm-10,0h-5v-1h5Zm-10,0h-5v-1h5Zm-10,0h-5v-1h5Zm-10,0h-5v-1h5Zm-10,0h-5v-1h5Zm-10,0h-5v-1h5Zm-10,0h-5v-1h5Zm-10,0h-5v-1h5Zm-10,0h-5v-1h5Zm-10,0h-5v-1h5Zm-10,0h-5v-1h5Zm-10,0h-5v-1h5Zm-10,0h-5v-1h5Zm-10,0h-5v-1h5Zm-10,0h-5v-1h5Zm-10,0h-5v-1h5Zm-10,0h-5v-1h5Zm-10,0h-5v-1h5Zm-10,0h-5v-1h5Zm-10,0h-5v-1h5Zm-10,0h-5v-1h5Zm-10,0h-5v-1h5Zm-10,0h-5v-1h5Zm-10,0h-5v-1h5Zm-10,0h-5v-1h5Zm-10,0h-5v-1h5Zm-10,0h-5v-1h5Zm-10,0h-5v-1h5Zm-10,0h-5v-1h5Zm-10,0h-5v-1h5Z" transform="translate(6049.999 -5278.156)" fill="#d2e2df"/><path d="M-5435.93,5884.16h-4.564v-1h4.564Zm-9.564,0h-5v-1h5Zm-10,0h-5v-1h5Zm-10,0h-5v-1h5Zm-10,0h-5v-1h5Zm-10,0h-5v-1h5Zm-10,0h-5v-1h5Zm-10,0h-5v-1h5Zm-10,0h-5v-1h5Zm-10,0h-5v-1h5Zm-10,0h-5v-1h5Zm-10,0h-5v-1h5Zm-10,0h-5v-1h5Zm-10,0h-5v-1h5Zm-10,0h-5v-1h5Zm-10,0h-5v-1h5Zm-10,0h-5v-1h5Zm-10,0h-5v-1h5Zm-10,0h-5v-1h5Zm-10,0h-5v-1h5Zm-10,0h-5v-1h5Zm-10,0h-5v-1h5Zm-10,0h-5v-1h5Zm-10,0h-5v-1h5Zm-10,0h-5v-1h5Zm-10,0h-5v-1h5Zm-10,0h-5v-1h5Zm-10,0h-5v-1h5Zm-10,0h-5v-1h5Zm-10,0h-5v-1h5Zm-10,0h-5v-1h5Zm-10,0h-5v-1h5Zm-10,0h-5v-1h5Zm-10,0h-5v-1h5Zm-10,0h-5v-1h5Zm-10,0h-5v-1h5Zm-10,0h-5v-1h5Zm-10,0h-5v-1h5Zm-10,0h-5v-1h5Zm-10,0h-5v-1h5Zm-10,0h-5v-1h5Zm-10,0h-5v-1h5Zm-10,0h-5v-1h5Zm-10,0h-5v-1h5Zm-10,0h-5v-1h5Zm-10,0h-5v-1h5Zm-10,0h-5v-1h5Zm-10,0h-5v-1h5Zm-10,0h-5v-1h5Zm-10,0h-5v-1h5Zm-10,0h-5v-1h5Zm-10,0h-5v-1h5Z" transform="translate(6049.999 -5223.156)" fill="#d2e2df"/><path d="M-5435.93,5884.16h-4.564v-1h4.564Zm-9.564,0h-5v-1h5Zm-10,0h-5v-1h5Zm-10,0h-5v-1h5Zm-10,0h-5v-1h5Zm-10,0h-5v-1h5Zm-10,0h-5v-1h5Zm-10,0h-5v-1h5Zm-10,0h-5v-1h5Zm-10,0h-5v-1h5Zm-10,0h-5v-1h5Zm-10,0h-5v-1h5Zm-10,0h-5v-1h5Zm-10,0h-5v-1h5Zm-10,0h-5v-1h5Zm-10,0h-5v-1h5Zm-10,0h-5v-1h5Zm-10,0h-5v-1h5Zm-10,0h-5v-1h5Zm-10,0h-5v-1h5Zm-10,0h-5v-1h5Zm-10,0h-5v-1h5Zm-10,0h-5v-1h5Zm-10,0h-5v-1h5Zm-10,0h-5v-1h5Zm-10,0h-5v-1h5Zm-10,0h-5v-1h5Zm-10,0h-5v-1h5Zm-10,0h-5v-1h5Zm-10,0h-5v-1h5Zm-10,0h-5v-1h5Zm-10,0h-5v-1h5Zm-10,0h-5v-1h5Zm-10,0h-5v-1h5Zm-10,0h-5v-1h5Zm-10,0h-5v-1h5Zm-10,0h-5v-1h5Zm-10,0h-5v-1h5Zm-10,0h-5v-1h5Zm-10,0h-5v-1h5Zm-10,0h-5v-1h5Zm-10,0h-5v-1h5Zm-10,0h-5v-1h5Zm-10,0h-5v-1h5Zm-10,0h-5v-1h5Zm-10,0h-5v-1h5Zm-10,0h-5v-1h5Zm-10,0h-5v-1h5Zm-10,0h-5v-1h5Zm-10,0h-5v-1h5Zm-10,0h-5v-1h5Zm-10,0h-5v-1h5Z" transform="translate(6049.999 -5332.156)" fill="#d2e2df"/></g><g transform="translate(-1674.057 -597.361)"><path d="M1330.09,1519.34l69.419-50.035,24.741-5.138,31.2-4.624,23.573-16.1,54.955-71.764,30.12-39.564,34.423-41.1,22.59-4.624,18.287,21.067,29.045,50.868,7.848,5.652h7.75l8.606-5.652,18.825-40.078,25.817-90.432,14.919-34.465,12.412-6.993,10.821,2.128,16.231,17.33,32.781,64.151,9.23,13.986,2.228,2.438v238.359h-507.4Z" transform="translate(-1220.238 -800.343)" fill="#e2edfe"/><path d="M1791.36,1511.36h-1V1281.85h1Z" transform="translate(-1175.187 -794.566)" fill="#8ecbbf"/><g transform="translate(105.492 382)"><path d="M4.394,642.353l-2.208-3.335c4.711-3.119,10.731-8.205,17.7-14.1,7.043-5.952,15.027-12.7,23.692-19.135A171.054,171.054,0,0,1,71.4,588.51a70.787,70.787,0,0,1,17.539-5.819,119.767,119.767,0,0,1,14.982-1.657c12.036-.8,23.4-1.555,39.239-13.689,16.945-12.985,29.063-30.553,41.893-49.151,8.952-12.977,18.208-26.4,29.935-39.719,9.309-10.576,17-21.992,24.432-33.032,7.567-11.236,14.714-21.85,22.4-29.564A48.761,48.761,0,0,1,274.2,406.52a32.347,32.347,0,0,1,6.922-2.586,30.258,30.258,0,0,1,7.5-.857,17.988,17.988,0,0,1,10.663,4.006,44.23,44.23,0,0,1,9.011,9.73c5.581,7.791,10.747,18.129,15.742,28.127,4.3,8.6,8.736,17.484,13.241,24.264,4.831,7.27,9.214,11.336,13.4,12.43,2.9.758,5.815.105,8.909-2,6.046-4.1,12.08-14.493,18.448-31.76,5.78-15.672,11.216-35.313,16.474-54.308,5.379-19.434,10.941-39.529,16.882-55.4,6.892-18.41,13.393-28.818,20.458-32.754a15.621,15.621,0,0,1,12.812-1.279,24.83,24.83,0,0,1,6.965,3.672,46.638,46.638,0,0,1,6.62,6.008,109.912,109.912,0,0,1,12.531,17.124c8.034,13.065,15.475,28.726,22.04,42.544,6.092,12.822,11.353,23.895,15.26,28.976l-3.171,2.438c-4.166-5.418-9.512-16.67-15.7-29.7-6.522-13.727-13.914-29.285-21.835-42.166a106.061,106.061,0,0,0-12.059-16.5c-4.185-4.518-8.178-7.408-11.869-8.588a11.613,11.613,0,0,0-9.647.963c-6.1,3.4-12.208,13.431-18.659,30.662-5.879,15.7-11.417,35.712-16.773,55.062-5.279,19.073-10.738,38.8-16.576,54.625A142.024,142.024,0,0,1,372.549,470c-3.52,6.2-7.025,10.434-10.715,12.939-4.048,2.748-8.141,3.608-12.167,2.556a19.515,19.515,0,0,1-8.391-5.041,51.8,51.8,0,0,1-7.332-9.046c-4.641-6.985-9.138-15.986-13.487-24.69-4.926-9.858-10.019-20.052-15.416-27.585-5.776-8.064-11.162-12.01-16.463-12.065-8.335-.087-15.936,3.607-23.926,11.625-7.417,7.443-14.46,17.9-21.917,28.975-7.506,11.146-15.267,22.671-24.747,33.441-11.571,13.146-20.759,26.466-29.644,39.347-6.61,9.583-12.854,18.634-19.7,27.082a162.438,162.438,0,0,1-10.815,12.145A118.861,118.861,0,0,1,145.6,570.52a77.74,77.74,0,0,1-11.754,7.553,57.315,57.315,0,0,1-10.577,4.213c-6.708,1.918-13,2.336-19.075,2.74-9.28.617-18.875,1.254-31.057,7.092-19,9.1-36.554,23.939-50.662,35.86C15.4,633.948,9.3,639.1,4.394,642.353Z" transform="translate(1.694 -301.181)" fill="#4268fb"/><circle cx="4.606" cy="4.606" r="4.606" transform="translate(0 335.509)" fill="#1e967e"/><circle cx="4.606" cy="4.606" r="4.606" transform="translate(73.852 282.881)" fill="#1e967e"/><circle cx="4.606" cy="4.606" r="4.606" transform="translate(145.202 259.924)" fill="#1e967e"/><circle cx="4.606" cy="4.606" r="4.606" transform="translate(217.327 169.406)" fill="#4268fb"/><circle cx="4.606" cy="4.606" r="4.606" transform="translate(283.087 99.027)" fill="#4268fb"/><circle cx="4.606" cy="4.606" r="4.606" transform="translate(360.623 173.332)" fill="#4268fb"/><circle cx="4.606" cy="4.606" r="4.606" transform="translate(433.034 0)" fill="#4268fb"/><circle cx="4.606" cy="4.606" r="4.606" transform="translate(504.872 99.046)" fill="#4268fb"/></g></g><g transform="translate(-1641.946 -599.398)"><rect width="61" height="29" rx="2" transform="translate(473.946 343.398)" fill="#4268fb"/><path d="M4.573.513h1.94V-2.792h3.3v-1.94h-3.3v-3.3H4.573v3.305h-3.3v1.94h3.3ZM12.518,2.54h8.674V.625H15.681V.538L17.862-1.68C20.321-4.04,21-5.189,21-6.616c0-2.119-1.724-3.67-4.269-3.67-2.508,0-4.288,1.557-4.288,3.96h2.181a1.95,1.95,0,0,1,.557-1.525A1.95,1.95,0,0,1,16.7-8.426a1.917,1.917,0,0,1,1.479.5A1.917,1.917,0,0,1,18.8-6.5c0,1.056-.643,1.81-1.891,3.077L12.518.884Zm15.445.173a4.268,4.268,0,0,0,3.243-1.174,4.268,4.268,0,0,0,1.316-3.188,3.915,3.915,0,0,0-1.072-2.9A3.915,3.915,0,0,0,28.606-5.77a3.553,3.553,0,0,0-3.163,1.748h-.086c.006-2.7.982-4.319,2.737-4.319A2,2,0,0,1,30.151-6.7h2.255a4.129,4.129,0,0,0-4.312-3.62c-3.04,0-4.961,2.533-4.961,6.895,0,4.637,2.4,6.125,4.831,6.138ZM27.951.859A2.379,2.379,0,0,1,26.265.131,2.379,2.379,0,0,1,25.6-1.581a2.413,2.413,0,0,1,2.379-2.44,2.316,2.316,0,0,1,1.679.713A2.316,2.316,0,0,1,30.3-1.6,2.358,2.358,0,0,1,29.649.13a2.358,2.358,0,0,1-1.7.729ZM41.37.167a2.678,2.678,0,1,0,5.35,0V-.5A2.546,2.546,0,0,0,46-2.466a2.546,2.546,0,0,0-1.952-.759,2.583,2.583,0,0,0-1.939.772A2.583,2.583,0,0,0,41.37-.5Zm-6.431-7.24a2.561,2.561,0,0,0,.735,1.954,2.561,2.561,0,0,0,1.946.758,2.548,2.548,0,0,0,1.943-.758,2.548,2.548,0,0,0,.726-1.954V-7.74a2.544,2.544,0,0,0-.72-1.965,2.544,2.544,0,0,0-1.949-.76,2.585,2.585,0,0,0-1.943.77,2.585,2.585,0,0,0-.738,1.955Zm.556,9.613h1.551l8.7-12.653H44.194ZM42.983-.5c.006-.655.284-1.316,1.063-1.316.816,0,1.056.661,1.05,1.316V.167c.006.655-.259,1.3-1.05,1.3S42.989.816,42.983.167ZM36.564-7.741c.006-.649.272-1.316,1.056-1.316.816,0,1.05.661,1.044,1.316v.667c.006.655-.253,1.3-1.044,1.3s-1.05-.649-1.056-1.3Z" transform="translate(480.188 361.586)" fill="#fff"/><path d="M6.5,0,13,8H0Z" transform="translate(510.946 377.398) rotate(180)" fill="#4268fb"/></g><g transform="translate(-1113.983 -509.815)"><rect width="56" height="30" rx="15" transform="translate(-0.017 -0.185)" fill="#fff"/><circle cx="10" cy="10" r="10" transform="translate(30.983 4.815)" fill="#4268fb"/></g><g transform="translate(-1898.565 -921)"><rect width="127" height="41" rx="4" transform="translate(326 574)" fill="#e2edfe"/><g transform="translate(339.179 584.25)"><path d="M47.082-880.432l-1.77-2.982-3.355-.745.326-3.448L40-890.216l2.283-2.609-.326-3.448,3.355-.745L47.082-900l3.168,1.351L53.418-900l1.77,2.982,3.355.745-.326,3.448,2.283,2.609-2.283,2.609.326,3.448-3.355.745-1.77,2.982-3.168-1.351Zm2.19-6.476,5.265-5.265-1.3-1.351-3.96,3.96-2-1.957-1.3,1.3Z" transform="translate(-40 900)" fill="#4268fb"/><path d="M3.306-9.953H.343L5.592,4.956H8.926L14.182-9.953h-2.97L7.339,1.782H7.186ZM19.78,5.174c2.606,0,4.4-1.274,4.863-3.218l-2.46-.276a2.332,2.332,0,0,1-2.366,1.441A2.754,2.754,0,0,1,16.963.086h7.789V-.722c0-3.924-2.359-5.649-5.11-5.649-3.2,0-5.292,2.351-5.292,5.8C14.349,2.939,16.41,5.174,19.78,5.174ZM16.97-1.691a2.687,2.687,0,0,1,2.708-2.628,2.491,2.491,0,0,1,1.849.756,2.491,2.491,0,0,1,.7,1.872ZM26.98,4.956h2.635V-1.618a2.389,2.389,0,0,1,.732-1.76,2.389,2.389,0,0,1,1.787-.664,5.036,5.036,0,0,1,1.223.153V-6.313a6.328,6.328,0,0,0-.946-.073,2.792,2.792,0,0,0-2.759,2.024h-.116V-6.226H26.98Zm8.132,0h2.635V-6.226H35.112ZM36.436-7.813A1.48,1.48,0,0,0,37.958-9.24a1.481,1.481,0,0,0-1.521-1.434A1.483,1.483,0,0,0,34.908-9.24a1.482,1.482,0,0,0,1.528,1.427Zm9.755,1.587H43.869v-.881c0-.874.364-1.361,1.347-1.361a3.386,3.386,0,0,1,.983.16l.531-2.038a6.571,6.571,0,0,0-2-.306,3.2,3.2,0,0,0-2.521.883,3.2,3.2,0,0,0-.973,2.488v1.056H39.581v2.038h1.653V4.956h2.635V-4.188h2.322ZM48.259,4.956h2.635V-6.226H48.259ZM49.584-7.813A1.48,1.48,0,0,0,51.1-9.24a1.481,1.481,0,0,0-1.521-1.434A1.483,1.483,0,0,0,48.055-9.24a1.482,1.482,0,0,0,1.529,1.427ZM58.553,5.174c2.606,0,4.4-1.274,4.863-3.218L60.955,1.68a2.332,2.332,0,0,1-2.366,1.441A2.754,2.754,0,0,1,55.735.086h7.789V-.722c0-3.924-2.359-5.649-5.11-5.649-3.2,0-5.292,2.351-5.292,5.8C53.122,2.939,55.182,5.174,58.553,5.174Zm-2.81-6.865a2.687,2.687,0,0,1,2.708-2.628,2.491,2.491,0,0,1,1.85.756A2.491,2.491,0,0,1,61-1.691ZM69.9,5.152a3.371,3.371,0,0,0,3.2-1.958h.16V4.956h2.592V-9.953H73.214v5.576H73.1a3.317,3.317,0,0,0-3.2-1.995c-2.584,0-4.615,2.024-4.615,5.751C65.294,3.063,67.267,5.152,69.9,5.152Zm.735-2.162c-1.74,0-2.657-1.529-2.657-3.625s.9-3.574,2.657-3.574c1.7,0,2.628,1.4,2.628,3.574S72.319,2.99,70.637,2.99Z" transform="translate(26.561 12.527)" fill="#4268fb"/></g></g></g></g></svg>