<svg width="600" height="903" viewBox="0 0 600 903" fill="none" xmlns="http://www.w3.org/2000/svg">
<path d="M572 0H28C12.536 0 0 12.536 0 28V572C0 587.464 12.536 600 28 600H572C587.464 600 600 587.464 600 572V28C600 12.536 587.464 0 572 0Z" fill="#F5535E"/>
<path d="M382.308 100.256C382.308 97.3534 384.667 95 387.577 95H429.731C432.641 95 435 97.3534 435 100.256V142.308C435 145.211 432.641 147.564 429.731 147.564H387.577C384.667 147.564 382.308 145.211 382.308 142.308V100.256Z" fill="white"/>
<path d="M161 131.791C161 127.586 165.742 125.063 169.22 127.481L432.682 304.411C434.157 305.358 435 307.04 435 308.722V359.078C435 363.283 430.258 365.806 426.78 363.388L163.318 186.563C161.843 185.616 161 183.934 161 182.252V131.791Z" fill="white"/>
<path d="M161 265.094C161 260.889 165.742 258.366 169.22 260.784L432.682 437.714C434.157 438.661 435 440.343 435 442.025V492.381C435 496.586 430.258 499.109 426.78 496.691L163.318 319.866C161.843 318.92 161 317.238 161 315.555V265.094Z" fill="white"/>
<path d="M252.892 786.759V899.582H234.291V889.214H233.986C228.498 897.956 219.502 902.326 207 902.326C195.718 902.326 185.859 898.261 177.422 890.129C168.376 881.388 163.853 870.461 163.853 857.349C163.853 843.831 168.529 832.701 177.88 823.96C186.316 816.032 196.023 812.068 207 812.068C217.469 812.068 226.007 815.524 232.614 822.435V786.759H252.892ZM184.131 856.587C184.131 864.312 186.57 870.766 191.449 875.95C196.429 881.134 202.325 883.726 209.135 883.726C216.453 883.726 222.552 880.88 227.43 875.188C231.903 870.004 234.139 864.007 234.139 857.197C234.139 850.082 231.699 843.882 226.821 838.596C222.043 833.311 216.148 830.668 209.135 830.668C202.02 830.668 195.972 833.514 190.992 839.206C186.418 844.39 184.131 850.184 184.131 856.587Z" fill="white"/>
<path d="M265.322 899.582V814.965H283.922V822.435H284.227C286.667 818.979 288.852 816.54 290.783 815.117C293.832 813.084 297.695 812.068 302.37 812.068H304.047V831.736C291.749 832.244 285.599 839.003 285.599 852.013V899.582H265.322Z" fill="white"/>
<path d="M312.633 899.582V814.965H332.911V899.582H312.633ZM312.633 805.359V786.759H332.911V805.359H312.633Z" fill="white"/>
<path d="M375.789 899.582L341.637 814.965H363.592L384.022 871.071H384.479L403.69 814.965H425.949L391.645 899.582H375.789Z" fill="white"/>
<path d="M512.272 866.345H446.561C447.17 870.004 449.356 873.561 453.116 877.017C457.894 881.49 463.484 883.726 469.887 883.726C478.934 883.726 485.439 880.117 489.403 872.901H510.748C508.207 880.931 503.277 887.741 495.959 893.331C488.132 899.328 479.442 902.326 469.887 902.326C457.385 902.326 446.815 897.956 438.175 889.214C429.535 880.473 425.216 869.902 425.216 857.502C425.216 845.203 429.383 834.582 437.718 825.637C446.357 816.286 457.03 811.61 469.735 811.61C482.542 811.61 493.214 816.337 501.752 825.789C509.579 834.632 513.492 844.746 513.492 856.13C513.492 859.281 513.086 862.686 512.272 866.345ZM445.951 850.031H492.757C491.639 843.628 488.793 838.647 484.219 835.09C480.153 831.837 475.376 830.211 469.887 830.211C465.11 830.211 460.689 831.532 456.623 834.175C451.236 837.732 447.679 843.018 445.951 850.031Z" fill="white"/>
<path d="M524.444 899.582V814.965H543.197V822.283C550.312 815.473 558.037 812.068 566.372 812.068C570.539 812.068 574.808 812.983 579.179 814.812C584.362 816.845 588.58 819.843 591.833 823.807C597.017 830.109 599.609 840.121 599.609 853.843V899.582H579.331V857.807C579.331 839.715 573.639 830.668 562.255 830.668C556.36 830.668 551.735 833.159 548.381 838.139C545.941 841.697 544.722 848.761 544.722 859.332V899.582H524.444Z" fill="white"/>
<path d="M598.352 716.585H532.641C533.251 720.244 535.436 723.802 539.197 727.258C543.974 731.73 549.564 733.966 555.968 733.966C565.014 733.966 571.519 730.358 575.483 723.141H596.828C594.287 731.171 589.357 737.981 582.039 743.571C574.213 749.568 565.522 752.566 555.968 752.566C543.466 752.566 532.895 748.196 524.256 739.455C515.616 730.713 511.296 720.143 511.296 707.742C511.296 695.444 515.464 684.822 523.798 675.878C532.438 666.527 543.11 661.851 555.815 661.851C568.622 661.851 579.295 666.578 587.832 676.03C595.659 684.873 599.572 694.986 599.572 706.37C599.572 709.521 599.165 712.926 598.352 716.585ZM532.031 700.272H578.837C577.719 693.868 574.873 688.888 570.299 685.33C566.234 682.078 561.457 680.452 555.968 680.452C551.191 680.452 546.769 681.773 542.704 684.416C537.317 687.973 533.759 693.258 532.031 700.272Z" fill="white"/>
<path d="M466.074 749.822L431.923 665.205H453.877L474.307 721.312H474.765L493.975 665.205H516.234L481.93 749.822H466.074Z" fill="white"/>
<path d="M406.521 749.822V665.206H426.798V749.822H406.521ZM406.521 655.6V637H426.798V655.6H406.521Z" fill="white"/>
<path d="M368.245 749.822V683.196H358.335V665.206H368.245V637H388.523V665.206H400.72V683.196H388.523V749.822H368.245Z" fill="white"/>
<path d="M351.546 665.205V749.822H332.946V739.302C329.693 743.164 325.272 746.366 319.681 748.907C314.091 751.347 308.653 752.566 303.368 752.566C291.984 752.566 282.379 748.501 274.553 740.369C266.32 731.73 262.203 720.6 262.203 706.98C262.203 694.173 266.269 683.552 274.4 675.115C282.633 666.578 292.696 662.309 304.588 662.309C311.906 662.309 318.665 664.392 324.865 668.56C329.032 671.507 331.624 673.947 332.641 675.878H332.946V665.205H351.546ZM332.336 707.285C332.336 699.052 329.744 692.445 324.56 687.465C319.885 683.094 314.244 680.909 307.637 680.909C299.81 680.909 293.56 683.806 288.884 689.599C284.615 694.783 282.481 700.882 282.481 707.895C282.481 715.111 284.869 721.261 289.646 726.343C294.423 731.425 300.42 733.966 307.637 733.966C314.752 733.966 320.647 731.476 325.323 726.495C329.998 721.515 332.336 715.111 332.336 707.285Z" fill="white"/>
<path d="M224.861 749.822V665.205H243.461V672.676H243.766C246.206 669.22 248.391 666.781 250.322 665.358C253.371 663.325 257.234 662.309 261.909 662.309H263.586V681.976C251.288 682.484 245.138 689.244 245.138 702.254V749.822H224.861Z" fill="white"/>
<path d="M179.028 749.822V665.205H197.628V672.676H197.933C200.373 669.22 202.558 666.781 204.489 665.358C207.538 663.325 211.401 662.309 216.076 662.309H217.753V681.976C205.455 682.484 199.305 689.244 199.305 702.254V749.822H179.028Z" fill="white"/>
<path d="M171.239 665.205V749.822H152.639V739.302C149.386 743.164 144.965 746.366 139.375 748.907C133.784 751.347 128.347 752.566 123.061 752.566C111.677 752.566 102.072 748.501 94.2459 740.369C86.013 731.73 81.8965 720.6 81.8965 706.98C81.8965 694.173 85.9621 683.552 94.0935 675.115C102.326 666.578 112.389 662.309 124.281 662.309C131.599 662.309 138.358 664.392 144.558 668.56C148.726 671.507 151.318 673.947 152.334 675.878H152.639V665.205H171.239ZM152.029 707.285C152.029 699.052 149.437 692.445 144.254 687.465C139.578 683.094 133.937 680.909 127.33 680.909C119.504 680.909 113.253 683.806 108.577 689.599C104.308 694.783 102.174 700.882 102.174 707.895C102.174 715.111 104.563 721.261 109.34 726.343C114.117 731.425 120.114 733.966 127.33 733.966C134.445 733.966 140.34 731.476 145.016 726.495C149.691 721.515 152.029 715.111 152.029 707.285Z" fill="white"/>
<path d="M0 749.822V665.205H18.7529V672.524C25.8678 665.714 33.5925 662.309 41.9271 662.309C46.0944 662.309 50.3634 663.223 54.734 665.053C59.9177 667.086 64.1358 670.084 67.3883 674.048C72.5721 680.35 75.1639 690.362 75.1639 704.083V749.822H54.8864V708.047C54.8864 689.955 49.1945 680.909 37.8106 680.909C31.9154 680.909 27.2907 683.399 23.9366 688.38C21.4972 691.937 20.2775 699.001 20.2775 709.572V749.822H0Z" fill="white"/>
</svg>
